PathFileType	3	(X/Y/Z)	results
DataRate	CameraRate	NumFrames	NumMarkers	Units	OrigDataRate	OrigDataStartFrame	OrigNumFrames
30.0	30.0	4	85	mm	30.0	359	410
Frame#	Time	head			nose			neck			shoulder_r			elbow_r			wrist_r			shoulder_l			elbow_l			wrist_l			hip_r			knee_r			ankle_r			hip_l			knee_l			ankle_l			heel_r			heel_l			mtoe_r			ltoe_r			mtoe_l			ltoe_l			asis_l			asis_r			psi_r			psi_l			mhnd_r			lhnd_r			mhnd_l			lhnd_l			l_lat_knee			r_med_wrist			l_lat_ankle			r_med_ankle			r_lat_knee			xiphoid			l_med_ankle			r_med_knee			l_med_elbow			navel			r_lat_elbow			r_lat_wrist			l_med_wrist			l_lat_elbow			l_med_knee			r_med_elbow			r_lat_ankle			l_lat_wrist			chin			T10			r_eye			l_eye			l_ear			r_ear			spinal_cord_8			spinal_cord_12			spinal_cord_27			spinal_cord_33			up_arm_r_0			up_arm_r_5			up_arm_l_0			up_arm_l_5			front_torso_11			front_torso_7			front_torso_4			front_torso_1			front_torso_10			thigh_r_2			thigh_r_3			thigh_l_1			thigh_l_5			shank_l_0			shank_l_4			shank_r_1			shank_r_2			foot_r_1			foot_r_3			foot_r_5			foot_r_6			foot_r_7			foot_l_1			foot_l_7			foot_l_0			foot_l_4			foot_l_5			foot_l_6			
		X1	Y1	Z1	X2	Y2	Z2	X3	Y3	Z3	X4	Y4	Z4	X5	Y5	Z5	X6	Y6	Z6	X7	Y7	Z7	X8	Y8	Z8	X9	Y9	Z9	X10	Y10	Z10	X11	Y11	Z11	X12	Y12	Z12	X13	Y13	Z13	X14	Y14	Z14	X15	Y15	Z15	X16	Y16	Z16	X17	Y17	Z17	X18	Y18	Z18	X19	Y19	Z19	X20	Y20	Z20	X21	Y21	Z21	X22	Y22	Z22	X23	Y23	Z23	X24	Y24	Z24	X25	Y25	Z25	X26	Y26	Z26	X27	Y27	Z27	X28	Y28	Z28	X29	Y29	Z29	X30	Y30	Z30	X31	Y31	Z31	X32	Y32	Z32	X33	Y33	Z33	X34	Y34	Z34	X35	Y35	Z35	X36	Y36	Z36	X37	Y37	Z37	X38	Y38	Z38	X39	Y39	Z39	X40	Y40	Z40	X41	Y41	Z41	X42	Y42	Z42	X43	Y43	Z43	X44	Y44	Z44	X45	Y45	Z45	X46	Y46	Z46	X47	Y47	Z47	X48	Y48	Z48	X49	Y49	Z49	X50	Y50	Z50	X51	Y51	Z51	X52	Y52	Z52	X53	Y53	Z53	X54	Y54	Z54	X55	Y55	Z55	X56	Y56	Z56	X57	Y57	Z57	X58	Y58	Z58	X59	Y59	Z59	X60	Y60	Z60	X61	Y61	Z61	X62	Y62	Z62	X63	Y63	Z63	X64	Y64	Z64	X65	Y65	Z65	X66	Y66	Z66	X67	Y67	Z67	X68	Y68	Z68	X69	Y69	Z69	X70	Y70	Z70	X71	Y71	Z71	X72	Y72	Z72	X73	Y73	Z73	X74	Y74	Z74	X75	Y75	Z75	X76	Y76	Z76	X77	Y77	Z77	X78	Y78	Z78	X79	Y79	Z79	X80	Y80	Z80	X81	Y81	Z81	X82	Y82	Z82	X83	Y83	Z83	X84	Y84	Z84	X85	Y85	Z85	
359	11.966666666666667	-1051.6224507593229	1673.8547357078567	-175.0509911178499	-934.9935931399792	1481.1974177733105	-210.58749693851524	-1093.365228402785	1339.3448269248804	-264.4801545200275	-1217.1447822430232	1296.0991353830227	-99.8475590569075	-1281.7728244985458	1039.1027124275217	-76.9026273383952	-1296.7145123241041	825.4062303400569	3.4571681501164644	-1001.5286425100658	1304.6421155041824	-390.70334432079164	-826.5568201306529	1116.4973081121746	-476.24325246069003	-661.6071127997669	985.4458573546532	-384.47628429391614	-1147.5151630170285	858.9866182765696	-192.4277818354207	-1051.500075628867	487.5876762070581	-108.73882421862683	-1015.0585325326375	108.8704317037521	-15.190582667359273	-1046.8376441361165	858.7502929100035	-363.23101737932694	-1161.5068170635188	482.91922931153493	-409.29861488361627	-1274.9203817270993	118.51561699914065	-488.65715164630586	-1017.4162472421202	51.2282603600084	-15.945840351274846	-1305.9534996399423	60.931575034324084	-515.0640302500087	-858.0259508248718	86.67611241867785	139.118781439217	-947.0111303163121	82.4002994700462	143.71277168318886	-1149.420463933884	27.929656733430885	-354.5761165303056	-1144.8124841981055	-0.2589542218773	-448.3370503132823	-995.7634468604285	930.3294842667924	-384.3588314523742	-1145.756650239608	926.9766221564693	-135.7826535970746	-1223.9556203640523	917.7708399929328	-295.1919609476754	-1168.3661274661188	918.5164571683122	-377.2228539073528	-1328.1875216578856	759.8011167900879	12.790256279678934	-1286.9912784988758	750.0215422110568	45.59683679919258	-604.4036741893603	935.0278240085439	-383.83963257889053	-604.7836225744459	943.9110917858351	-331.1453205848142	-1140.959465151507	476.02234431480775	-455.8611771993959	-1322.8170422846295	833.207318342235	-5.837935510187201	-1256.2703878067737	107.66477845211303	-539.5197938652798	-982.5807849668608	97.73429520032956	-32.95174217987615	-1068.1896324083937	482.6776845086595	-68.15913701584026	-1040.1414810266456	1165.6400709584982	-214.7744974347777	-1282.0818545454558	101.87420117207341	-458.43852339704347	-1024.7205894305073	481.74152793249095	-141.50515104771222	-859.8818284965837	1102.5461173340836	-485.2629864283397	-1048.6413245935676	953.0314000178354	-220.2853020703476	-1290.5842199941585	1051.5525657497162	-39.20293736073744	-1265.4250466812782	830.6920455970078	2.639971951798409	-654.0195723876468	990.7441259308256	-415.0772299339914	-804.6915614652978	1151.1691248949808	-471.98297804367184	-1157.7891878776247	474.51532800212726	-359.58650137382904	-1271.4331752091693	1039.6281635777455	-112.93325602114918	-1039.078577345118	98.36253141873486	28.652782064831975	-674.2786681668078	999.479534277136	-360.1988123211106	-961.2452651486692	1405.282307627217	-234.48062145405297	-1184.5909948325298	1198.204419248644	-333.6341940812278	-938.4006338815191	1504.7335743840467	-167.84623130194558	-927.4508498035746	1523.2445342899343	-238.66686860614533	-1027.2425202003117	1543.7144664912607	-307.4588144044952	-1057.3523179922258	1494.8849659763684	-133.03301934554077	-1123.8852810101475	1401.7709029656269	-291.12090828367224	-1173.201305553914	1294.5687485906853	-329.9055953217706	-1195.530150165925	1050.6594991697602	-322.67642195006965	-1175.7664440137087	1187.4782183581274	-326.3125405671469	-1211.1172976977418	1162.0146215885266	-61.71689907378321	-1294.9573689562728	1151.973885055157	-92.42081735904924	-944.6312815817715	1287.6764190661193	-409.89851443480904	-906.0939692541465	1151.4737541290237	-476.96888776749165	-1107.5104379041982	985.0613497243149	-203.51755791759996	-1026.5455822843633	1078.522664851637	-200.0944007811011	-988.3373966674837	1207.4569287499726	-261.3434519231837	-1022.6384570615805	1014.912255530525	-294.9162031741304	-1074.735510445402	1248.7730551493316	-136.44286740888433	-1084.4755646149151	656.9548082504829	-161.43192701564405	-1125.0180080506136	628.6340101742413	-70.82994524002287	-1144.054361866269	589.415266775408	-350.9704669616819	-1024.0568769424945	750.400478890939	-464.10841064295016	-1206.0924011656286	205.58533448630877	-523.9362292255665	-1225.4460011476183	338.70122528399685	-395.6134777544146	-1072.4022347324935	333.01627919692135	-22.922374359414967	-1004.1443285457692	285.4885237886622	-88.95009919438527	-887.2042476793267	80.27782690777077	144.3107659225588	-916.1816796588317	83.02144128952361	148.67635757617253	-907.1125350711031	78.93060198246903	71.25469736423636	-942.8704130699624	89.30799391888623	85.2765459882926	-973.334750348894	79.44725256877493	101.52424082185169	-1141.6379863288503	5.02226087487094	-406.2258535628419	-1196.4726726809122	44.151856941594225	-494.4346975274912	-1138.136565504959	1.6612927505981965	-422.35421999539176	-1146.4143172459471	9.2222001107884	-386.84623557080755	-1179.1981998189628	30.98723896693197	-433.38167918947624	-1215.6342674455323	56.242507496986	-432.84788527765045	
360	12.0	-1023.7927722228508	1663.8939573723394	-142.90237517598004	-907.011751164364	1470.0997705996078	-170.97339444676786	-1064.5402617838222	1326.6374094264336	-230.7677580880623	-1180.9235170435531	1287.7908992738292	-59.349121814544766	-1239.4499869638687	1028.896947662086	-42.057815131873845	-1275.291429321243	814.7544817190475	30.091561249130176	-966.2529435626898	1290.19508133721	-357.76980677236475	-785.6840120405512	1106.4667285921996	-441.2529573267672	-621.6523452357297	992.0065803856522	-328.1311119630848	-1110.0885934610224	845.9934062382152	-155.22612014316937	-1023.6726438234884	472.42927427007794	-73.71419286502882	-942.0877988824382	109.81049237333829	50.211361143880374	-1009.2966402412753	847.2439774125494	-325.9574358642423	-1145.7168988983153	481.3927503046775	-389.01374729646756	-1271.0636700475457	124.57230342755004	-483.44765183295533	-938.838989873048	52.92481660697804	54.194904482243345	-1303.7851220594723	68.36950593630404	-511.8230697517413	-775.295136592091	111.37259885800302	197.52710094393672	-863.3633893644827	100.98111399554865	207.20952769701506	-1144.2418142934487	29.02586488547084	-355.79070392677926	-1141.4707474128284	4.5286489409213235	-450.65456199717426	-960.0700658210359	919.9790436809458	-347.5188202338416	-1110.133201290658	914.3738564818258	-99.02544770467951	-1187.9359235000604	902.1130436797262	-258.4229430112338	-1132.3160689765018	903.7593661196458	-340.42011656365366	-1311.2112889537127	750.9080238979344	33.9750238977625	-1274.63750515274	738.0426618868712	70.93287899719219	-563.028141772357	944.0443152433076	-319.33107267620153	-566.3608223430417	958.4830242034526	-267.98748254573394	-1126.3281426643534	475.69445641298256	-436.2956759309615	-1299.6887667686246	824.2605234460551	18.13317119960335	-1253.6039472843454	115.64327284580605	-535.1003559035039	-909.5630306535605	100.43566454296199	31.542444056731718	-1040.0824360569231	467.23939143669287	-32.7998822592153	-1009.7029058175929	1154.192459414813	-178.49572462370668	-1278.195136267573	106.7136147451867	-453.92480754207475	-995.5721977779652	465.9931562639764	-105.51409990031118	-818.6057015039958	1090.806597715184	-448.8338656727701	-1015.1502853553629	941.4415229287404	-182.02111084640515	-1252.123302986826	1041.0301471770317	-5.368870022365184	-1243.8688851793504	818.2255233236106	32.957551933160865	-612.6855004509626	994.2781665245378	-358.73333221745804	-765.2193205559452	1142.157671460512	-438.85976839933016	-1141.4374940658477	470.01106870698976	-339.8916797745146	-1225.8121011959045	1029.7783711670384	-76.96657927496467	-962.5509705205021	101.04890043539044	96.19083771177313	-635.9686530490679	1008.084982738652	-306.1439257596668	-932.7954998292294	1393.924487109886	-194.54583854804633	-1152.6731414029098	1183.5584148990974	-299.9489201369509	-911.8394304363	1494.3649962358902	-128.78018740460246	-898.2229127211696	1511.6331917163716	-199.4520767689418	-995.3360096511504	1531.4361488532213	-272.1612007144639	-1032.0294626382406	1485.68335242286	-98.16249338524752	-1095.4973012437804	1388.3646760851918	-258.5098668905586	-1142.6883496752423	1280.1054232920276	-297.00094716480595	-1161.7291935219732	1035.9877858811205	-287.6958102530844	-1143.8181903192847	1173.0294775709888	-292.3817533669316	-1174.348100467667	1153.9178578823244	-20.57145652070967	-1254.6047011669855	1141.3225851727377	-58.95037894432271	-909.2030629542307	1274.9181623947322	-377.907481964022	-866.6374887912658	1138.0345261313105	-441.0404161257528	-1074.7205653077178	972.8006579910007	-166.50873453919536	-995.1309233454342	1067.422463617083	-162.73433816018513	-957.7485164164743	1196.2793468202844	-224.652150010243	-988.8221740254553	1002.9524586983638	-256.84354152715963	-1046.7000066701146	1237.5890870676915	-101.55483030184409	-1051.5359930118261	642.5121334464224	-124.91851633168365	-1093.9543043452118	614.3182628590627	-35.13951572458601	-1121.1536968363087	583.3677713816137	-325.6192254184817	-994.4637420308055	743.3080777668439	-432.7853719066243	-1200.327935598642	211.24154410959196	-515.8195303370117	-1213.6033554447913	338.55856218395536	-381.0038380129629	-1023.4399161729724	325.22855342614133	26.413594068286347	-953.9782054768001	278.9533041897751	-39.247366884923885	-803.6112652344872	103.27154596492791	204.72693208167237	-832.4676200597813	104.21540304395121	210.44508689767787	-826.8796208818858	95.02452320684094	133.1314411889842	-862.6045541199487	103.7878446347319	148.2926312447381	-891.3997342954709	92.97535770109003	166.81897406224496	-1137.4815988362075	8.154866038478856	-408.4377548634111	-1193.9498619702752	50.73770311500326	-493.9760826141315	-1134.2947626735677	5.426324006374786	-424.74969502859364	-1141.8796182843494	11.595063428438412	-388.8202910369102	-1175.5231678749674	35.18304025019279	-433.82880474439696	-1211.9100771290407	60.41699546330943	-431.605993958109	
361	12.033333333333333	-995.458570218851	1654.1092320539442	-110.43735452065253	-879.0448136872823	1459.0829814357187	-130.30125870069236	-1034.079999839968	1314.9996859877538	-194.49301223114924	-1148.5299576126736	1276.4171384313145	-27.49370057440372	-1204.758355229089	1017.1188228726642	-8.700989242389376	-1241.4123814821046	803.4602347373625	64.46749644689447	-933.4712618982868	1275.6777218918437	-324.93245392622606	-753.7807548825465	1091.9034687839544	-410.1910525717262	-593.8106718738206	997.0171740415421	-275.2457719837962	-1077.2018112212138	835.9523370488367	-115.19909142275101	-986.5164366445288	462.95285706968616	-36.3439944675982	-892.3714818201555	104.53838426506906	90.86372546342908	-972.6732700160175	833.6050392293583	-283.656914620199	-1122.9111706934023	476.6319584876335	-364.0697014193233	-1266.2260815141187	131.80023879935092	-475.88351141794965	-888.2977518695155	48.44835547429138	95.25187189727545	-1301.668000705005	78.0502789384748	-506.56824127086696	-717.9974847275831	103.74550049986306	231.80551887159555	-805.5346359479556	93.30529129165002	245.4436521664287	-1139.4714199307614	27.897540805073902	-356.4847299451302	-1139.292522363586	8.231155496411507	-452.5063173785948	-922.8911908176276	905.8403635487834	-305.61918456903834	-1078.3968029635212	905.4753125316398	-60.43111334550989	-1152.6862792259697	889.9994648546837	-221.21893775735805	-1095.2722745799126	889.9116939790374	-301.9867496143076	-1277.1192401981987	739.4753193656156	68.02258012553224	-1241.434182234574	727.1230309990186	106.00994466938596	-535.0137712298883	951.8726131966713	-257.3709320812544	-541.0207437774534	972.9978249392999	-208.65349133002698	-1104.729741148747	473.040410404901	-412.00870934112714	-1265.5430451142972	812.7381634364096	51.80933275151578	-1250.2836256901926	125.15344337994256	-528.3642655746106	-860.1712667889149	95.65763663546339	71.40723852772143	-1003.271790664517	457.03148310948643	4.370921688972879	-977.3543602381094	1143.5358081119261	-141.0224383430818	-1273.5317504819488	112.57367159981096	-447.2766027842193	-957.8025225165112	457.1665871798513	-67.75812420716329	-786.7176273032428	1075.2748406023784	-415.2108800094877	-980.0121745002552	930.7175295952635	-143.54822932826428	-1218.4354725266896	1029.5181181670102	27.5357338623153	-1210.089221147843	807.111489237715	68.09603334467532	-583.4108894164324	995.3449369695513	-305.430344889367	-734.0064300512493	1128.0591388815383	-410.53449236658565	-1118.0864753896642	462.4121739411768	-315.7644258193961	-1190.2951993942272	1017.7624598709534	-43.28123655677408	-911.2822361431947	96.03706228652497	137.55130462303163	-609.3944058473451	1015.6050436839975	-256.3104508517827	-904.4614565916023	1382.6044958325642	-153.28323281482602	-1119.883713594605	1170.4553118384792	-263.55590338875675	-885.2563079445443	1484.2248741175613	-88.80816344012959	-868.9319073346055	1499.9782729157264	-159.25999412745944	-963.1674099154466	1518.895855857281	-235.88585477911406	-1006.5476463981681	1476.8925129585416	-62.481263451242164	-1065.6517141240001	1376.1849904909452	-222.73843154323598	-1111.1745975634067	1267.1372229112355	-261.01212482357226	-1127.1019835967768	1022.8394643687104	-250.64468793364404	-1110.943144132822	1160.0789506814995	-255.87944328550165	-1141.4960485841245	1143.0556296451623	12.931127665897769	-1220.671534682393	1129.1841365807686	-27.212721403464627	-877.2969061585636	1260.6176221989738	-347.5429436689762	-835.2749102649184	1121.8614133081242	-406.8353690852335	-1040.0868623205195	961.3715432815609	-128.58124057402307	-961.7607831071623	1057.0394024737461	-124.74336247569597	-925.6457668618024	1186.0750100232437	-187.0400213497833	-953.9890610125634	992.2079410437652	-218.49412756647172	-1015.9430620923504	1226.8101010496496	-64.7335897520899	-1016.0821543332146	633.0439530837231	-86.14463387000214	-1059.252411960173	603.330805212353	2.781932042992513	-1093.5960374651245	574.0336572970601	-295.6214288141404	-963.6086069019005	735.4520185091129	-396.4341748710058	-1192.345430058195	217.02778939851942	-504.8827163315925	-1196.9997080155013	336.6915869318009	-362.68551517467165	-979.7325249924046	317.4738804560201	66.04509675521635	-911.0472166376227	271.83985414783695	-0.8694292995807401	-745.9615070631169	95.54783410287135	240.17686811424704	-774.5120512834676	96.42382477481776	247.27450430900694	-772.6165946001653	88.77531895066423	169.61495613634898	-807.5605045742584	97.29109675790454	186.6247481773901	-835.4734481072683	86.15630547101605	206.27625345162244	-1134.2926552920283	9.623380031229694	-410.2643406080206	-1191.8229241374406	57.538031335641016	-492.1985985603877	-1131.524056213864	7.674097123488918	-426.76329250173	-1138.184370649417	12.136441049534444	-390.4007685217231	-1172.3621773352156	38.59956881002757	-433.361538824838	-1208.1960168192518	64.34375573649722	-429.01719354842515	
362	12.066666666666666	-967.8220607469028	1645.6492311814707	-77.18877136749845	-849.4861816087296	1451.208806430273	-90.28521212204836	-1001.1362450741763	1305.7827073304136	-156.98001326113143	-1122.7980641666331	1265.0300671391096	-4.045548346834394	-1181.2262250386962	1006.5671026024808	19.05122911923469	-1206.8581203424683	793.8835428224573	99.3995120195173	-900.2206365052696	1267.1996814141569	-288.32618841359545	-729.1871550243947	1075.907823175219	-374.8458754446761	-572.8567104569767	1002.3147295245553	-223.35688637617733	-1045.982258361764	832.0197430383719	-72.38810606245998	-944.8940531634211	460.73772272090855	3.5547286344000675	-864.1448246901018	93.45920348751719	113.51864205801672	-936.4853802327111	821.3528610926329	-237.33177899206783	-1086.003211710235	467.50202842401876	-333.2646914218757	-1260.077945012961	143.2498164353998	-461.7516437524907	-862.6608996785092	37.60141890060432	115.03284656338052	-1300.454768870347	94.24832150796242	-494.5453133394666	-687.3257175783901	73.11471544060717	251.79261193814207	-775.0762882207886	66.48211107059407	266.40751539528327	-1135.8523891342202	23.1039668594534	-356.0078609453691	-1140.0017857087046	12.274566954572657	-453.3343762146349	-885.5856619951874	892.2327159179578	-261.07632896536813	-1048.3464220908986	903.998717601796	-20.930924847632593	-1117.9009746789964	881.5239932738104	-183.00561011468835	-1058.1013380430636	877.4073534802535	-261.91614046649994	-1239.9241022800934	728.7408162699268	106.08933939140857	-1202.3770419716097	718.8249913675479	142.98021812102	-514.7117354416567	960.3157929969988	-197.47507786571424	-521.7440244583668	988.5752292720994	-152.6677291792942	-1068.404254152508	466.68787234534193	-381.31130113340623	-1231.7894132278063	801.8876188444125	87.44278175937177	-1245.5896879137129	138.39138140390972	-514.84643972317	-832.3347457655971	84.29519939852098	93.55827336723644	-962.3269835492855	454.052257601401	43.741237661164405	-943.1645642671166	1134.802742359152	-103.29670413057876	-1268.554224140772	123.05332657255458	-434.1537562193485	-916.0001503404089	456.38398078025244	-27.80217190789465	-762.5522731074566	1059.4346187735425	-376.24227782478056	-944.3399650756301	921.9674027792387	-105.4875775616466	-1193.8054726455578	1019.4970419123998	55.49962225011003	-1175.583022970154	798.8027185353841	101.70348845784108	-561.767725055075	996.0820182314126	-252.68687113871002	-709.1925212330191	1111.696741053271	-379.0580400068083	-1081.4980880999037	451.7569055578324	-285.60371724440085	-1167.6803749240567	1006.6877096911644	-15.904257549026	-883.2869827456801	83.49456495314695	159.82094131073177	-588.7845083214329	1023.5736143158314	-207.823917522953	-873.6962863730331	1374.136479379525	-112.57563296025448	-1085.9955188382044	1160.5352177945317	-225.7339714534153	-857.033914731249	1477.0397459827473	-49.441991517117394	-838.8676846093321	1491.6569582195666	-119.68756978184045	-931.0664686576841	1508.4687953700397	-199.22670331529287	-978.9552514394564	1469.2377322181737	-26.360089438562106	-1033.1610922268403	1366.7019317194158	-185.29035778018147	-1077.9587022761775	1257.279395108374	-223.34961084098254	-1092.171378087328	1012.8930432158608	-212.58526890195046	-1076.9754282136228	1150.2335230966028	-218.0499787183252	-1116.0934716821619	1132.0370447966038	37.62985312719522	-1196.4481681477068	1118.5946764896612	-0.25325692289218354	-846.0825786498572	1249.9581036993418	-314.1214938292553	-809.9247743702481	1107.113441579886	-367.25096822948905	-1004.612695710396	952.2250745940263	-90.51030603679794	-926.9523283456651	1048.4428461979087	-86.89768316571812	-891.7980977251045	1177.6293630277678	-149.43071491526572	-918.8182571605794	983.5202187600303	-180.55457475991415	-982.2602407788532	1217.925390033118	-27.100656226688503	-979.2367981321921	630.6717840926908	-44.89939542925295	-1022.5952722513794	598.6454936367642	43.12807679828767	-1057.1008674157429	562.4029845307339	-260.56178729745005	-927.5848399863264	728.3426501571142	-354.3991744043361	-1179.6302484042476	223.48384095408517	-487.31938409449805	-1171.7800083486754	334.4973142877918	-338.40493472940716	-943.4421724712303	310.4625471354152	98.99551520126587	-876.6385013044955	265.46505615472347	29.78435235801594	-715.5649124967667	65.85342622867552	260.10461031540655	-743.9019789223375	67.75420115620415	267.8295760471351	-743.7046684272141	65.85665538797271	189.7945953757224	-777.8344958620571	74.970696108136	208.0980781655718	-806.0033346310087	63.936565007892106	227.43876394695485	-1133.471314395353	9.579659951135438	-411.36519726099505	-1191.3430417647307	67.3946230414898	-486.3789392247123	-1131.379826884558	9.0131470419504	-428.068041372609	-1136.5384563473854	10.453229882295204	-391.21943006404643	-1170.8206250688045	42.288179167851425	-430.2747280081054	-1205.1454708061874	69.17869507952257	-422.2494138296815	
